<?xml version="1.0" encoding="UTF-8" standalone="no"?><!DOCTYPE svg PUBLIC "-//W3C//DTD SVG 1.1//EN" "http://www.w3.org/Graphics/SVG/1.1/DTD/svg11.dtd"><svg width="100%" height="100%" viewBox="0 0 10608 6378" version="1.1" xmlns="http://www.w3.org/2000/svg" xmlns:xlink="http://www.w3.org/1999/xlink" xml:space="preserve" xmlns:serif="http://www.serif.com/" style="fill-rule:evenodd;clip-rule:evenodd;stroke-linejoin:round;stroke-miterlimit:2;"><g><g><path d="M6484.765,3091.24l0,-4.724c0,-21.22 -17.461,-38.681 -38.681,-38.681l-395.079,-0c-21.22,-0 -38.681,-17.461 -38.681,-38.681l0,-383.858c0,-21.22 -17.461,-38.681 -38.681,-38.681l-1339.961,0c-21.22,0 -38.681,17.461 -38.681,38.681l0,383.858c0,21.22 -17.461,38.681 -38.681,38.681l-395.079,0c-21.22,0 -38.681,17.461 -38.681,38.681l0,4.724c0,21.22 17.461,38.681 38.681,38.681l43.248,0c32.397,0 59.055,26.658 59.055,59.055c0,32.397 -26.658,59.055 -59.055,59.055l-33.006,0c-31.313,-0 -61.375,12.452 -83.517,34.594l-3060.734,3060.734c-22.141,22.141 -52.204,34.594 -83.517,34.594l-872.85,0c-38.876,0 -70.866,-31.99 -70.866,-70.866c0,-8.267 1.446,-16.47 4.274,-24.238l2201.808,-6049.418c13.554,-37.24 49.16,-62.171 88.79,-62.171c33.715,0 64.971,18.046 81.829,47.244l116.477,201.743c-0.875,3.265 -1.318,6.631 -1.318,10.011c0,21.22 17.461,38.681 38.681,38.681c17.452,0 32.846,-11.811 37.363,-28.669l38.223,-22.068c3.265,0.875 6.631,1.318 10.011,1.318c21.22,0 38.681,-17.461 38.681,-38.681c0,-17.452 -11.811,-32.846 -28.669,-37.363l-116.477,-201.743c-8.292,-14.363 -12.659,-30.659 -12.659,-47.244c0,-51.835 42.654,-94.488 94.488,-94.488l5424.321,0c51.835,0 94.488,42.654 94.488,94.488c0,16.585 -4.367,32.881 -12.659,47.244l-116.477,201.743c-16.857,4.518 -28.668,19.911 -28.668,37.363c0,21.22 17.461,38.681 38.681,38.681c3.38,0 6.745,-0.443 10.01,-1.318l38.223,22.068c4.517,16.858 19.91,28.67 37.363,28.67c21.22,0 38.681,-17.461 38.681,-38.681c0,-3.38 -0.443,-6.746 -1.318,-10.011l116.477,-201.743c16.858,-29.198 48.114,-47.244 81.829,-47.244c39.63,0 75.236,24.932 88.79,62.171l2201.808,6049.418c2.827,7.768 4.274,15.971 4.274,24.238c0,38.876 -31.99,70.866 -70.866,70.866l-872.85,0c-31.313,0 -61.375,-12.452 -83.517,-34.594l-3060.734,-3060.734c-22.141,-22.141 -52.204,-34.594 -83.517,-34.594l-33.006,0c-32.397,0 -59.055,-26.658 -59.055,-59.055c0,-32.397 26.658,-59.055 59.055,-59.055l43.248,0c21.22,-0 38.681,-17.461 38.681,-38.681Zm638.935,-955.486c0.018,-0.031 0.018,-0.031 0,0c0,0 4.062,-4.895 7.015,-6.075c14.662,-5.858 24.328,-20.131 24.328,-35.92c0,-21.22 -17.461,-38.681 -38.681,-38.681c-1.85,0 -3.699,0.133 -5.53,0.397c-3.148,0.455 -6.359,-0.163 -9.113,-1.753l-28.961,-16.72c-2.754,-1.59 -4.895,-4.062 -6.075,-7.015c-5.858,-14.662 -20.131,-24.328 -35.92,-24.328c-21.22,0 -38.681,17.461 -38.681,38.681c0,1.85 0.133,3.699 0.397,5.53c0.455,3.148 -0.163,6.359 -1.753,9.113l-158.453,274.448c-1.59,2.754 -4.062,4.895 -7.015,6.075c-14.662,5.858 -24.328,20.131 -24.328,35.92c0,21.22 17.461,38.681 38.681,38.681c1.85,0 3.699,-0.133 5.53,-0.397c3.148,-0.455 6.359,0.163 9.113,1.753l28.961,16.72c2.754,1.59 4.895,4.062 6.075,7.015c5.858,14.662 20.131,24.328 35.92,24.328c21.22,0 38.681,-17.461 38.681,-38.681c0,-1.85 -0.133,-3.699 -0.397,-5.53c-0.455,-3.148 0.163,-6.359 1.753,-9.113c21.795,-35.906 156.91,-271.734 158.453,-274.448Zm602.362,-1043.322c0.018,-0.031 0.018,-0.031 0,0c0,0 4.062,-4.895 7.015,-6.075c14.662,-5.858 24.328,-20.131 24.328,-35.92c0,-21.22 -17.461,-38.681 -38.681,-38.681c-1.85,0 -3.699,0.133 -5.53,0.397c-3.148,0.455 -6.359,-0.163 -9.113,-1.753l-28.961,-16.72c-2.754,-1.59 -4.895,-4.062 -6.075,-7.015c-5.858,-14.662 -20.131,-24.328 -35.92,-24.328c-21.22,0 -38.681,17.461 -38.681,38.681c0,1.85 0.133,3.699 0.397,5.53c0.455,3.148 -0.163,6.359 -1.753,9.113l-158.453,274.448c-1.59,2.754 -4.062,4.895 -7.015,6.075c-14.662,5.858 -24.328,20.131 -24.328,35.92c0,21.22 17.461,38.681 38.681,38.681c1.85,0 3.699,-0.133 5.53,-0.397c3.148,-0.455 6.359,0.163 9.113,1.753l28.961,16.72c2.754,1.59 4.895,4.062 6.075,7.015c5.858,14.662 20.131,24.328 35.92,24.328c21.22,0 38.681,-17.461 38.681,-38.681c0,-1.85 -0.133,-3.699 -0.397,-5.53c-0.455,-3.148 0.163,-6.359 1.753,-9.113c21.795,-35.906 156.91,-271.734 158.453,-274.448Zm-4553.374,197.676c0.018,0.031 0.018,0.031 0,0c-1.543,-2.714 -136.658,-238.542 -158.453,-274.448c-1.59,-2.754 -2.208,-5.965 -1.753,-9.113c0.265,-1.831 0.397,-3.68 0.397,-5.53c0,-21.22 -17.461,-38.681 -38.681,-38.681c-15.789,0 -30.061,9.667 -35.92,24.328c-1.18,2.953 -3.321,5.425 -6.075,7.015l-28.961,16.72c-2.754,1.59 -5.965,2.208 -9.113,1.753c-1.831,-0.265 -3.68,-0.397 -5.53,-0.397c-21.22,0 -38.681,17.461 -38.681,38.681c0,15.789 9.667,30.061 24.328,35.92c2.953,1.18 5.425,3.321 7.015,6.075l158.453,274.448c1.59,2.754 2.208,5.965 1.753,9.113c-0.265,1.831 -0.397,3.68 -0.397,5.53c0,21.22 17.461,38.681 38.681,38.681c15.789,0 30.061,-9.667 35.92,-24.328c1.18,-2.953 3.321,-5.425 6.075,-7.015l28.961,-16.72c2.754,-1.59 5.965,-2.208 9.113,-1.753c1.831,0.265 3.68,0.397 5.53,0.397c21.22,0 38.681,-17.461 38.681,-38.681c0,-15.789 -9.667,-30.061 -24.328,-35.92c-2.953,-1.18 -7.015,-6.075 -7.015,-6.075Zm602.362,1043.322c0.018,0.031 0.018,0.031 0,0c-1.543,-2.714 -136.658,-238.542 -158.453,-274.448c-1.59,-2.754 -2.208,-5.965 -1.753,-9.113c0.265,-1.831 0.397,-3.68 0.397,-5.53c0,-21.22 -17.461,-38.681 -38.681,-38.681c-15.789,0 -30.061,9.667 -35.92,24.328c-1.18,2.953 -3.321,5.425 -6.075,7.015l-28.961,16.72c-2.754,1.59 -5.965,2.208 -9.113,1.753c-1.831,-0.265 -3.68,-0.397 -5.53,-0.397c-21.22,0 -38.681,17.461 -38.681,38.681c0,15.789 9.667,30.061 24.328,35.92c2.953,1.18 5.425,3.321 7.015,6.075l158.453,274.448c1.59,2.754 2.208,5.965 1.753,9.113c-0.265,1.831 -0.397,3.68 -0.397,5.53c0,21.22 17.461,38.681 38.681,38.681c15.789,0 30.061,-9.667 35.92,-24.328c1.18,-2.953 3.321,-5.425 6.075,-7.015l28.961,-16.72c2.754,-1.59 5.965,-2.208 9.113,-1.753c1.831,0.265 3.68,0.397 5.53,0.397c21.22,0 38.681,-17.461 38.681,-38.681c0,-15.789 -9.667,-30.061 -24.328,-35.92c-2.953,-1.18 -7.015,-6.075 -7.015,-6.075Z" style="fill:#00031a;"/><path d="M5671.729,1451.065c4.925,-14.137 17.863,-24.027 32.797,-25.071l95.749,-6.695c19.539,-1.366 34.884,-17.822 34.884,-37.409l0,-118.11c0,-19.587 -15.345,-36.042 -34.884,-37.409c0,0 -95.749,-6.695 -95.749,-6.695c-14.933,-1.044 -27.872,-10.935 -32.797,-25.071c-4.913,-14.103 -10.633,-27.912 -17.131,-41.359c-6.514,-13.479 -4.359,-29.621 5.463,-40.919l62.97,-72.439c12.85,-14.782 12.065,-37.269 -1.785,-51.119l-83.517,-83.517c-13.85,-13.85 -36.337,-14.635 -51.119,-1.785l-72.439,62.97c-11.298,9.821 -27.44,11.976 -40.919,5.463c-13.447,-6.498 -27.256,-12.218 -41.359,-17.131c-14.137,-4.925 -24.027,-17.863 -25.071,-32.797l-6.695,-95.749c-1.366,-19.539 -17.822,-34.884 -37.409,-34.884l-118.11,0c-19.587,-0 -36.042,15.345 -37.409,34.884l-6.695,95.749c-1.044,14.933 -10.935,27.872 -25.071,32.797c-14.103,4.913 -27.912,10.633 -41.359,17.131c-13.479,6.514 -29.621,4.359 -40.919,-5.463l-72.439,-62.97c-14.782,-12.85 -37.269,-12.065 -51.119,1.785c0,0 -83.517,83.517 -83.517,83.517c-13.85,13.85 -14.635,36.337 -1.785,51.119l62.97,72.439c9.821,11.298 11.976,27.44 5.463,40.919c-6.498,13.447 -12.218,27.256 -17.131,41.359c-4.925,14.137 -17.863,24.027 -32.797,25.071l-95.749,6.695c-19.539,1.366 -34.884,17.822 -34.884,37.409c-0,-0 -0,118.11 -0,118.11c-0,19.587 15.345,36.042 34.884,37.409c-0,0 95.749,6.695 95.749,6.695c14.933,1.044 27.872,10.935 32.797,25.071c4.913,14.103 10.633,27.912 17.131,41.359c6.514,13.479 4.359,29.621 -5.463,40.919l-62.97,72.439c-12.85,14.782 -12.065,37.269 1.785,51.119l83.517,83.517c13.85,13.85 36.337,14.635 51.119,1.785c0,-0 72.439,-62.97 72.439,-62.97c11.298,-9.821 27.44,-11.976 40.919,-5.463c13.716,6.628 27.81,12.447 42.207,17.426c0,0 76.683,-236.006 76.683,-236.006c-54.709,-20.957 -91.033,-73.769 -91.033,-132.354c0,-77.752 63.98,-141.732 141.732,-141.732c77.752,0 141.732,63.98 141.732,141.732c0,58.585 -36.324,111.398 -91.033,132.354l76.683,236.006c14.398,-4.979 28.491,-10.797 42.207,-17.426c13.479,-6.514 29.621,-4.359 40.919,5.463l72.439,62.97c14.782,12.85 37.269,12.065 51.119,-1.785l83.517,-83.517c13.85,-13.85 14.635,-36.337 1.785,-51.119c0,0 -62.97,-72.439 -62.97,-72.439c-9.821,-11.298 -11.976,-27.44 -5.463,-40.919c6.498,-13.447 12.218,-27.256 17.131,-41.359" style="fill:#009ee3;fill-rule:nonzero;"/></g><path d="M4106.804,3066.109l0,-619.544c0,-24.284 19.855,-44.267 43.985,-44.267l2305.748,0c24.129,0 43.985,19.983 43.985,44.267l0,619.544l-490.712,0l0,-483.128l-1412.293,0l0,483.128l-490.712,0Z" style="fill:#009ee3;fill-opacity:0.78;"/></g></svg>