<?xml version="1.0" encoding="UTF-8" standalone="no"?>
<!DOCTYPE svg PUBLIC "-//W3C//DTD SVG 1.1//EN" "http://www.w3.org/Graphics/SVG/1.1/DTD/svg11.dtd">
<svg width="100%" height="100%" viewBox="0 0 10608 6379" version="1.1" xmlns="http://www.w3.org/2000/svg" xmlns:xlink="http://www.w3.org/1999/xlink" xml:space="preserve" xmlns:serif="http://www.serif.com/" style="fill-rule:evenodd;clip-rule:evenodd;stroke-linejoin:round;stroke-miterlimit:2;">
    <g transform="matrix(1,0,0,1,0,-8333.733544)">
        <g>
            <g transform="matrix(-11.811196,0,0,-11.811196,29355.679661,14917.277385)">
                <path d="M2080.744,386.811C2079.503,387.307 2078.684,388.516 2078.684,389.852C2078.684,391.649 2080.163,393.127 2081.959,393.127C2082.116,393.127 2082.272,393.116 2082.427,393.094C2082.694,393.055 2082.966,393.108 2083.199,393.242L2242.012,484.933C2242.245,485.067 2242.426,485.277 2242.526,485.527C2243.022,486.768 2244.231,487.587 2245.567,487.587C2247.364,487.587 2248.842,486.108 2248.842,484.312C2248.842,484.155 2248.831,483.998 2248.809,483.843C2248.77,483.577 2248.822,483.305 2248.957,483.072L2261.143,461.965L2275.546,458.106L2288.46,465.562L2292.32,479.965L2258.592,538.384C2257.165,540.856 2254.518,542.384 2251.664,542.384L1816.548,542.384C1813.693,542.384 1811.047,540.856 1809.62,538.384L1775.892,479.965L1779.751,465.562L1792.665,458.106L1807.069,461.965L1819.255,483.072C1819.389,483.305 1819.442,483.577 1819.403,483.843C1819.381,483.998 1819.369,484.155 1819.369,484.312C1819.369,486.108 1820.848,487.587 1822.644,487.587C1823.981,487.587 1825.19,486.768 1825.686,485.527C1825.786,485.277 1825.967,485.067 1826.2,484.933L1985.013,393.242C1985.246,393.108 1985.518,393.055 1985.784,393.094C1985.939,393.116 1986.096,393.127 1986.253,393.127C1988.049,393.127 1989.528,391.649 1989.528,389.852C1989.528,388.516 1988.709,387.307 1987.468,386.811L1986.874,386.297L1981.41,376.833C1980.883,375.921 1980.606,374.886 1980.606,373.833L1980.606,356.164C1980.606,355.111 1980.883,354.076 1981.41,353.164L1986.874,343.7C1987.944,341.846 1989.929,340.7 1992.07,340.7L2076.142,340.7C2078.283,340.7 2080.267,341.846 2081.338,343.7L2086.802,353.164C2087.329,354.076 2087.606,355.111 2087.606,356.164L2087.606,373.833C2087.606,374.886 2087.329,375.921 2086.802,376.833L2081.338,386.297L2080.744,386.811ZM2034.106,409.127C2030.794,409.127 2028.106,411.816 2028.106,415.127C2028.106,418.439 2030.794,421.127 2034.106,421.127C2037.417,421.127 2040.106,418.439 2040.106,415.127C2040.106,411.816 2037.417,409.127 2034.106,409.127ZM1792.185,485.701C1792.163,485.856 1792.152,486.013 1792.152,486.169C1792.152,487.966 1793.63,489.444 1795.427,489.444C1796.764,489.444 1797.972,488.626 1798.468,487.384C1798.568,487.134 1798.749,486.925 1798.982,486.791L1801.434,485.375C1801.668,485.24 1801.939,485.188 1802.206,485.226C1802.361,485.249 1802.517,485.26 1802.674,485.26C1804.471,485.26 1805.949,483.782 1805.949,481.985C1805.949,480.648 1805.131,479.44 1803.889,478.944C1803.639,478.844 1803.43,478.663 1803.295,478.43L1801.88,475.978C1801.745,475.744 1801.693,475.472 1801.731,475.206C1801.754,475.051 1801.765,474.894 1801.765,474.738C1801.765,472.941 1800.286,471.463 1798.49,471.463C1797.153,471.463 1795.945,472.281 1795.449,473.523C1795.349,473.773 1795.168,473.982 1794.934,474.117L1792.482,475.532C1792.249,475.667 1791.977,475.719 1791.711,475.681C1791.556,475.658 1791.399,475.647 1791.243,475.647C1789.446,475.647 1787.968,477.125 1787.968,478.922C1787.968,480.259 1788.786,481.467 1790.027,481.963C1790.277,482.063 1790.487,482.244 1790.621,482.478L1792.037,484.93C1792.172,485.163 1792.185,485.701 1792.185,485.701ZM2059.106,409.127C2055.794,409.127 2053.106,411.816 2053.106,415.127C2053.106,418.439 2055.794,421.127 2059.106,421.127C2062.417,421.127 2065.106,418.439 2065.106,415.127C2065.106,411.816 2062.417,409.127 2059.106,409.127ZM2074.431,362.777L1993.781,362.777C1992.039,362.777 1990.606,364.21 1990.606,365.952L1990.606,366.452C1990.606,368.194 1992.039,369.627 1993.781,369.627L1999.606,369.627L2005.668,380.127L2062.544,380.127L2068.606,369.627L2074.431,369.627C2075.703,369.627 2076.811,368.862 2077.316,367.771C2077.502,367.368 2077.606,366.921 2077.606,366.452L2077.606,365.952C2077.606,364.21 2076.173,362.777 2074.431,362.777ZM2276.026,485.701C2276.026,485.701 2276.04,485.163 2276.175,484.93L2277.59,482.478C2277.725,482.244 2277.934,482.063 2278.184,481.963C2279.426,481.467 2280.244,480.259 2280.244,478.922C2280.244,477.125 2278.766,475.647 2276.969,475.647C2276.812,475.647 2276.656,475.658 2276.501,475.681C2276.234,475.719 2275.963,475.667 2275.729,475.532L2273.277,474.117C2273.044,473.982 2272.863,473.773 2272.763,473.523C2272.267,472.281 2271.059,471.463 2269.722,471.463C2267.925,471.463 2266.447,472.941 2266.447,474.738C2266.447,474.894 2266.458,475.051 2266.48,475.206C2266.519,475.472 2266.467,475.744 2266.332,475.978L2264.916,478.43C2264.782,478.663 2264.572,478.844 2264.322,478.944C2263.081,479.44 2262.263,480.648 2262.263,481.985C2262.263,483.782 2263.741,485.26 2265.538,485.26C2265.694,485.26 2265.851,485.249 2266.006,485.226C2266.272,485.188 2266.544,485.24 2266.777,485.375L2269.229,486.791C2269.463,486.925 2269.644,487.134 2269.744,487.384C2270.24,488.626 2271.448,489.444 2272.785,489.444C2274.582,489.444 2276.06,487.966 2276.06,486.169C2276.06,486.013 2276.049,485.856 2276.026,485.701ZM2009.106,409.127C2005.794,409.127 2003.106,411.816 2003.106,415.127C2003.106,418.439 2005.794,421.127 2009.106,421.127C2012.417,421.127 2015.106,418.439 2015.106,415.127C2015.106,411.816 2012.417,409.127 2009.106,409.127Z"/>
            </g>
            <g transform="matrix(11.811196,0,0,11.811196,-9445.350216,542.477928)">
                <path d="M1152.88,924.65L1344.596,924.65C1347.247,924.65 1349.792,923.596 1351.667,921.721L1610.809,662.579C1612.684,660.704 1615.229,659.65 1617.88,659.65L1691.782,659.65C1695.073,659.65 1697.782,662.358 1697.782,665.65C1697.782,666.35 1697.659,667.044 1697.42,667.702L1511,1179.886C1509.852,1183.039 1506.838,1185.15 1503.482,1185.15C1500.628,1185.15 1497.981,1183.622 1496.554,1181.15L1486.798,1164.252C1486.872,1163.976 1486.91,1163.691 1486.91,1163.404C1486.91,1161.608 1485.431,1160.129 1483.635,1160.129C1482.157,1160.129 1480.854,1161.13 1480.471,1162.557L1477.235,1164.425C1476.959,1164.351 1476.674,1164.314 1476.387,1164.314C1474.591,1164.314 1473.112,1165.792 1473.112,1167.589C1473.112,1169.066 1474.112,1170.37 1475.54,1170.752L1485.296,1187.65C1485.998,1188.866 1486.368,1190.246 1486.368,1191.65C1486.368,1196.039 1482.756,1199.65 1478.368,1199.65L1019.108,1199.65C1014.72,1199.65 1011.108,1196.039 1011.108,1191.65C1011.108,1190.246 1011.478,1188.866 1012.18,1187.65L1021.936,1170.752C1023.364,1170.37 1024.364,1169.066 1024.364,1167.589C1024.364,1165.792 1022.885,1164.314 1021.089,1164.314C1020.802,1164.314 1020.517,1164.351 1020.241,1164.425L1017.005,1162.557C1016.622,1161.13 1015.319,1160.129 1013.841,1160.129C1012.045,1160.129 1010.566,1161.608 1010.566,1163.404C1010.566,1163.691 1010.604,1163.976 1010.678,1164.252L1000.922,1181.15C999.495,1183.622 996.848,1185.15 993.994,1185.15C990.638,1185.15 987.624,1183.039 986.476,1179.886L800.056,667.702C799.817,667.044 799.695,666.35 799.695,665.65C799.695,662.358 802.403,659.65 805.695,659.65L879.596,659.65C882.247,659.65 884.792,660.704 886.667,662.579L1145.809,921.721C1147.684,923.596 1150.229,924.65 1152.88,924.65ZM1127.46,987.98C1127.461,987.977 1127.461,987.977 1127.46,987.98C1127.46,987.98 1127.804,987.565 1128.054,987.465C1129.295,986.969 1130.114,985.761 1130.114,984.424C1130.114,982.628 1128.635,981.149 1126.839,981.149C1126.682,981.149 1126.526,981.161 1126.37,981.183C1126.104,981.221 1125.832,981.169 1125.599,981.034L1123.147,979.619C1122.914,979.484 1122.733,979.275 1122.633,979.025C1122.137,977.784 1120.928,976.965 1119.591,976.965C1117.795,976.965 1116.316,978.443 1116.316,980.24C1116.316,980.397 1116.328,980.553 1116.35,980.708C1116.389,980.975 1116.336,981.247 1116.202,981.48L1102.786,1004.716C1102.651,1004.95 1102.442,1005.131 1102.192,1005.231C1100.951,1005.727 1100.132,1006.935 1100.132,1008.272C1100.132,1010.069 1101.611,1011.547 1103.407,1011.547C1103.564,1011.547 1103.72,1011.536 1103.875,1011.513C1104.142,1011.475 1104.414,1011.527 1104.647,1011.662L1107.099,1013.077C1107.332,1013.212 1107.513,1013.421 1107.613,1013.671C1108.109,1014.913 1109.318,1015.731 1110.654,1015.731C1112.451,1015.731 1113.929,1014.253 1113.929,1012.456C1113.929,1012.3 1113.918,1012.143 1113.896,1011.988C1113.857,1011.721 1113.91,1011.45 1114.044,1011.216C1115.89,1008.176 1127.329,988.21 1127.46,987.98ZM1370.016,987.98C1370.015,987.977 1370.015,987.977 1370.016,987.98C1370.147,988.21 1381.587,1008.176 1383.432,1011.216C1383.567,1011.45 1383.619,1011.721 1383.58,1011.988C1383.558,1012.143 1383.547,1012.3 1383.547,1012.456C1383.547,1014.253 1385.025,1015.731 1386.822,1015.731C1388.158,1015.731 1389.367,1014.913 1389.863,1013.671C1389.963,1013.421 1390.144,1013.212 1390.377,1013.077L1392.829,1011.662C1393.062,1011.527 1393.334,1011.475 1393.601,1011.513C1393.756,1011.536 1393.912,1011.547 1394.069,1011.547C1395.866,1011.547 1397.344,1010.069 1397.344,1008.272C1397.344,1006.935 1396.526,1005.727 1395.284,1005.231C1395.034,1005.131 1394.825,1004.95 1394.69,1004.716L1381.275,981.48C1381.14,981.247 1381.088,980.975 1381.126,980.708C1381.148,980.553 1381.16,980.397 1381.16,980.24C1381.16,978.443 1379.681,976.965 1377.885,976.965C1376.548,976.965 1375.34,977.784 1374.844,979.025C1374.744,979.275 1374.562,979.484 1374.329,979.619L1371.877,981.034C1371.644,981.169 1371.372,981.221 1371.106,981.183C1370.951,981.161 1370.794,981.149 1370.637,981.149C1368.841,981.149 1367.362,982.628 1367.362,984.424C1367.362,985.761 1368.181,986.969 1369.422,987.465C1369.672,987.565 1370.016,987.98 1370.016,987.98ZM1071.96,1084.109C1071.961,1084.106 1071.961,1084.106 1071.96,1084.109C1071.96,1084.109 1072.304,1083.694 1072.554,1083.594C1073.795,1083.098 1074.614,1081.89 1074.614,1080.553C1074.614,1078.757 1073.135,1077.278 1071.339,1077.278C1071.182,1077.278 1071.026,1077.289 1070.87,1077.312C1070.604,1077.35 1070.332,1077.298 1070.099,1077.163L1067.647,1075.748C1067.414,1075.613 1067.233,1075.404 1067.133,1075.154C1066.637,1073.912 1065.428,1073.094 1064.091,1073.094C1062.295,1073.094 1060.816,1074.572 1060.816,1076.369C1060.816,1076.526 1060.828,1076.682 1060.85,1076.837C1060.889,1077.104 1060.836,1077.375 1060.702,1077.609L1047.286,1100.845C1047.151,1101.078 1046.942,1101.26 1046.692,1101.36C1045.451,1101.856 1044.632,1103.064 1044.632,1104.401C1044.632,1106.197 1046.111,1107.676 1047.907,1107.676C1048.064,1107.676 1048.22,1107.665 1048.375,1107.642C1048.642,1107.604 1048.914,1107.656 1049.147,1107.791L1051.599,1109.206C1051.832,1109.341 1052.013,1109.55 1052.113,1109.8C1052.609,1111.042 1053.818,1111.86 1055.154,1111.86C1056.951,1111.86 1058.429,1110.382 1058.429,1108.585C1058.429,1108.428 1058.418,1108.272 1058.396,1108.117C1058.357,1107.85 1058.41,1107.578 1058.544,1107.345C1060.39,1104.305 1071.829,1084.338 1071.96,1084.109ZM1425.516,1084.109C1425.515,1084.106 1425.515,1084.106 1425.516,1084.109C1425.647,1084.338 1437.087,1104.305 1438.932,1107.345C1439.067,1107.578 1439.119,1107.85 1439.08,1108.117C1439.058,1108.272 1439.047,1108.428 1439.047,1108.585C1439.047,1110.382 1440.525,1111.86 1442.322,1111.86C1443.658,1111.86 1444.867,1111.042 1445.363,1109.8C1445.463,1109.55 1445.644,1109.341 1445.877,1109.206L1448.329,1107.791C1448.562,1107.656 1448.834,1107.604 1449.101,1107.642C1449.256,1107.665 1449.412,1107.676 1449.569,1107.676C1451.366,1107.676 1452.844,1106.197 1452.844,1104.401C1452.844,1103.064 1452.026,1101.856 1450.784,1101.36C1450.534,1101.26 1450.325,1101.078 1450.19,1100.845L1436.775,1077.609C1436.64,1077.375 1436.588,1077.104 1436.626,1076.837C1436.648,1076.682 1436.66,1076.526 1436.66,1076.369C1436.66,1074.572 1435.181,1073.094 1433.385,1073.094C1432.048,1073.094 1430.84,1073.912 1430.344,1075.154C1430.244,1075.404 1430.062,1075.613 1429.829,1075.748L1427.377,1077.163C1427.144,1077.298 1426.872,1077.35 1426.606,1077.312C1426.451,1077.289 1426.294,1077.278 1426.137,1077.278C1424.341,1077.278 1422.862,1078.757 1422.862,1080.553C1422.862,1081.89 1423.681,1083.098 1424.922,1083.594C1425.172,1083.694 1425.516,1084.109 1425.516,1084.109Z" style="fill:rgb(24,23,21);"/>
            </g>
        </g>
    </g>
</svg>
