<?xml version="1.0" encoding="UTF-8" standalone="no"?>
<!DOCTYPE svg PUBLIC "-//W3C//DTD SVG 1.1//EN" "http://www.w3.org/Graphics/SVG/1.1/DTD/svg11.dtd">
<svg width="100%" height="100%" viewBox="0 0 10608 6379" version="1.1" xmlns="http://www.w3.org/2000/svg" xmlns:xlink="http://www.w3.org/1999/xlink" xml:space="preserve" xmlns:serif="http://www.serif.com/" style="fill-rule:evenodd;clip-rule:evenodd;stroke-linejoin:round;stroke-miterlimit:2;">
    <g transform="matrix(1,0,0,1,-11.220472,-8326.72504)">
        <g transform="matrix(-11.811196,0,0,-11.811196,29366.900134,14910.26888)">
            <path d="M2080.744,386.811C2079.503,387.307 2078.684,388.516 2078.684,389.852C2078.684,391.649 2080.163,393.127 2081.959,393.127C2082.116,393.127 2082.272,393.116 2082.427,393.094C2082.694,393.055 2082.966,393.108 2083.199,393.242L2242.012,484.933C2242.245,485.067 2242.426,485.277 2242.526,485.527C2243.022,486.768 2244.231,487.587 2245.567,487.587C2247.364,487.587 2248.842,486.108 2248.842,484.312C2248.842,484.155 2248.831,483.998 2248.809,483.843C2248.77,483.577 2248.822,483.305 2248.957,483.072L2261.143,461.965L2275.546,458.106L2288.46,465.562L2292.32,479.965L2258.592,538.384C2257.165,540.856 2254.518,542.384 2251.664,542.384L1816.548,542.384C1813.693,542.384 1811.047,540.856 1809.62,538.384L1775.892,479.965L1779.751,465.562L1792.665,458.106L1807.069,461.965L1819.255,483.072C1819.389,483.305 1819.442,483.577 1819.403,483.843C1819.381,483.998 1819.369,484.155 1819.369,484.312C1819.369,486.108 1820.848,487.587 1822.644,487.587C1823.981,487.587 1825.19,486.768 1825.686,485.527C1825.786,485.277 1825.967,485.067 1826.2,484.933L1985.013,393.242C1985.246,393.108 1985.518,393.055 1985.784,393.094C1985.939,393.116 1986.096,393.127 1986.253,393.127C1988.049,393.127 1989.528,391.649 1989.528,389.852C1989.528,388.516 1988.709,387.307 1987.468,386.811L1986.874,386.297L1981.41,376.833C1980.883,375.921 1980.606,374.886 1980.606,373.833L1980.606,356.164C1980.606,355.111 1980.883,354.076 1981.41,353.164L1986.874,343.7C1987.944,341.846 1989.929,340.7 1992.07,340.7L2076.142,340.7C2078.283,340.7 2080.267,341.846 2081.338,343.7L2086.802,353.164C2087.329,354.076 2087.606,355.111 2087.606,356.164L2087.606,373.833C2087.606,374.886 2087.329,375.921 2086.802,376.833L2081.338,386.297L2080.744,386.811ZM2034.106,409.127C2030.794,409.127 2028.106,411.816 2028.106,415.127C2028.106,418.439 2030.794,421.127 2034.106,421.127C2037.417,421.127 2040.106,418.439 2040.106,415.127C2040.106,411.816 2037.417,409.127 2034.106,409.127ZM1792.185,485.701C1792.163,485.856 1792.152,486.013 1792.152,486.169C1792.152,487.966 1793.63,489.444 1795.427,489.444C1796.764,489.444 1797.972,488.626 1798.468,487.384C1798.568,487.134 1798.749,486.925 1798.982,486.791L1801.434,485.375C1801.668,485.24 1801.939,485.188 1802.206,485.226C1802.361,485.249 1802.517,485.26 1802.674,485.26C1804.471,485.26 1805.949,483.782 1805.949,481.985C1805.949,480.648 1805.131,479.44 1803.889,478.944C1803.639,478.844 1803.43,478.663 1803.295,478.43L1801.88,475.978C1801.745,475.744 1801.693,475.472 1801.731,475.206C1801.754,475.051 1801.765,474.894 1801.765,474.738C1801.765,472.941 1800.286,471.463 1798.49,471.463C1797.153,471.463 1795.945,472.281 1795.449,473.523C1795.349,473.773 1795.168,473.982 1794.934,474.117L1792.482,475.532C1792.249,475.667 1791.977,475.719 1791.711,475.681C1791.556,475.658 1791.399,475.647 1791.243,475.647C1789.446,475.647 1787.968,477.125 1787.968,478.922C1787.968,480.259 1788.786,481.467 1790.027,481.963C1790.277,482.063 1790.487,482.244 1790.621,482.478L1792.037,484.93C1792.172,485.163 1792.185,485.701 1792.185,485.701ZM2074.431,362.777L1993.781,362.777C1992.039,362.777 1990.606,364.21 1990.606,365.952L1990.606,366.452C1990.606,368.194 1992.039,369.627 1993.781,369.627L1999.606,369.627L2005.668,380.127L2062.544,380.127L2068.606,369.627L2074.431,369.627C2075.703,369.627 2076.811,368.862 2077.316,367.771C2077.502,367.368 2077.606,366.921 2077.606,366.452L2077.606,365.952C2077.606,364.21 2076.173,362.777 2074.431,362.777ZM2009.106,409.127C2005.794,409.127 2003.106,411.816 2003.106,415.127C2003.106,418.439 2005.794,421.127 2009.106,421.127C2012.417,421.127 2015.106,418.439 2015.106,415.127C2015.106,411.816 2012.417,409.127 2009.106,409.127ZM2276.026,485.701C2276.026,485.701 2276.04,485.163 2276.175,484.93L2277.59,482.478C2277.725,482.244 2277.934,482.063 2278.184,481.963C2279.426,481.467 2280.244,480.259 2280.244,478.922C2280.244,477.125 2278.766,475.647 2276.969,475.647C2276.812,475.647 2276.656,475.658 2276.501,475.681C2276.234,475.719 2275.963,475.667 2275.729,475.532L2273.277,474.117C2273.044,473.982 2272.863,473.773 2272.763,473.523C2272.267,472.281 2271.059,471.463 2269.722,471.463C2267.925,471.463 2266.447,472.941 2266.447,474.738C2266.447,474.894 2266.458,475.051 2266.48,475.206C2266.519,475.472 2266.467,475.744 2266.332,475.978L2264.916,478.43C2264.782,478.663 2264.572,478.844 2264.322,478.944C2263.081,479.44 2262.263,480.648 2262.263,481.985C2262.263,483.782 2263.741,485.26 2265.538,485.26C2265.694,485.26 2265.851,485.249 2266.006,485.226C2266.272,485.188 2266.544,485.24 2266.777,485.375L2269.229,486.791C2269.463,486.925 2269.644,487.134 2269.744,487.384C2270.24,488.626 2271.448,489.444 2272.785,489.444C2274.582,489.444 2276.06,487.966 2276.06,486.169C2276.06,486.013 2276.049,485.856 2276.026,485.701ZM2059.106,409.127C2055.794,409.127 2053.106,411.816 2053.106,415.127C2053.106,418.439 2055.794,421.127 2059.106,421.127C2062.417,421.127 2065.106,418.439 2065.106,415.127C2065.106,411.816 2062.417,409.127 2059.106,409.127ZM2132.226,292.399L1940.51,292.399C1937.859,292.399 1935.313,293.453 1933.439,295.327L1674.297,554.47C1672.422,556.344 1669.877,557.399 1667.226,557.399L1593.324,557.399C1590.033,557.399 1587.324,554.69 1587.324,551.399C1587.324,550.699 1587.447,550.004 1587.686,549.346L1774.106,37.162C1775.254,34.009 1778.268,31.899 1781.623,31.899C1784.478,31.899 1787.124,33.426 1788.552,35.899L1798.308,52.796C1798.234,53.073 1798.196,53.358 1798.196,53.644C1798.196,55.441 1799.675,56.919 1801.471,56.919C1802.949,56.919 1804.252,55.919 1804.635,54.492L1807.871,52.623C1808.147,52.697 1808.432,52.735 1808.718,52.735C1810.515,52.735 1811.993,51.257 1811.993,49.46C1811.993,47.982 1810.993,46.679 1809.566,46.296L1799.81,29.399C1799.108,28.183 1798.738,26.803 1798.738,25.399C1798.738,21.01 1802.35,17.399 1806.738,17.399L2265.997,17.399C2270.386,17.399 2273.997,21.01 2273.997,25.399C2273.997,26.803 2273.628,28.183 2272.926,29.399L2263.17,46.296C2261.742,46.679 2260.742,47.982 2260.742,49.46C2260.742,51.256 2262.221,52.735 2264.017,52.735C2264.303,52.735 2264.588,52.697 2264.865,52.623L2268.101,54.492C2268.483,55.919 2269.787,56.919 2271.264,56.919C2273.061,56.919 2274.539,55.441 2274.539,53.644C2274.539,53.358 2274.502,53.073 2274.428,52.796L2284.184,35.899C2285.611,33.426 2288.258,31.899 2291.112,31.899C2294.467,31.899 2297.482,34.009 2298.63,37.162L2485.049,549.346C2485.289,550.004 2485.411,550.699 2485.411,551.399C2485.411,554.69 2482.703,557.399 2479.411,557.399L2405.51,557.399C2402.859,557.399 2400.313,556.344 2398.439,554.47L2139.297,295.327C2137.422,293.453 2134.877,292.399 2132.226,292.399ZM2157.646,229.069C2157.646,229.069 2157.302,229.483 2157.052,229.583C2155.811,230.079 2154.992,231.287 2154.992,232.624C2154.992,234.421 2156.471,235.899 2158.267,235.899C2158.424,235.899 2158.58,235.888 2158.735,235.866C2159.002,235.827 2159.274,235.879 2159.507,236.014L2161.959,237.43C2162.192,237.564 2162.373,237.774 2162.473,238.024C2162.969,239.265 2164.178,240.083 2165.514,240.083C2167.311,240.083 2168.789,238.605 2168.789,236.808C2168.789,236.652 2168.778,236.495 2168.756,236.34C2168.717,236.074 2168.77,235.802 2168.904,235.569L2182.32,212.332C2182.455,212.099 2182.664,211.918 2182.914,211.818C2184.155,211.322 2184.974,210.113 2184.974,208.777C2184.974,206.98 2183.495,205.502 2181.699,205.502C2181.542,205.502 2181.386,205.513 2181.23,205.535C2180.964,205.574 2180.692,205.521 2180.459,205.387L2178.007,203.971C2177.774,203.836 2177.593,203.627 2177.493,203.377C2176.997,202.136 2175.788,201.317 2174.451,201.317C2172.655,201.317 2171.176,202.796 2171.176,204.592C2171.176,204.749 2171.188,204.906 2171.21,205.061C2171.249,205.327 2171.196,205.599 2171.062,205.832C2169.216,208.872 2157.777,228.839 2157.646,229.069C2157.644,229.071 2157.644,229.071 2157.646,229.069ZM1859.59,132.94C1859.459,132.71 1848.019,112.743 1846.174,109.703C1846.039,109.47 1845.987,109.198 1846.026,108.932C1846.048,108.777 1846.059,108.62 1846.059,108.464C1846.059,106.667 1844.581,105.189 1842.784,105.189C1841.447,105.189 1840.239,106.007 1839.743,107.248C1839.643,107.498 1839.462,107.708 1839.229,107.842L1836.777,109.258C1836.543,109.393 1836.272,109.445 1836.005,109.406C1835.85,109.384 1835.694,109.373 1835.537,109.373C1833.74,109.373 1832.262,110.851 1832.262,112.648C1832.262,113.985 1833.08,115.193 1834.322,115.689C1834.572,115.789 1834.781,115.97 1834.916,116.203L1848.331,139.44C1848.466,139.673 1848.518,139.945 1848.48,140.211C1848.457,140.367 1848.446,140.523 1848.446,140.68C1848.446,142.476 1849.924,143.955 1851.721,143.955C1853.058,143.955 1854.266,143.136 1854.762,141.895C1854.862,141.645 1855.043,141.436 1855.277,141.301L1857.729,139.885C1857.962,139.751 1858.234,139.698 1858.5,139.737C1858.655,139.759 1858.812,139.77 1858.968,139.77C1860.765,139.77 1862.243,138.292 1862.243,136.495C1862.243,135.159 1861.425,133.95 1860.184,133.454C1859.934,133.354 1859.59,132.94 1859.59,132.94C1859.591,132.943 1859.591,132.943 1859.59,132.94ZM2213.146,132.94C2213.146,132.94 2212.802,133.354 2212.552,133.454C2211.311,133.95 2210.492,135.159 2210.492,136.495C2210.492,138.292 2211.971,139.77 2213.767,139.77C2213.924,139.77 2214.08,139.759 2214.235,139.737C2214.502,139.698 2214.774,139.751 2215.007,139.885L2217.459,141.301C2217.692,141.436 2217.873,141.645 2217.973,141.895C2218.469,143.136 2219.678,143.955 2221.014,143.955C2222.811,143.955 2224.289,142.476 2224.289,140.68C2224.289,140.523 2224.278,140.367 2224.256,140.211C2224.217,139.945 2224.27,139.673 2224.404,139.44L2237.82,116.203C2237.955,115.97 2238.164,115.789 2238.414,115.689C2239.655,115.193 2240.474,113.985 2240.474,112.648C2240.474,110.851 2238.995,109.373 2237.199,109.373C2237.042,109.373 2236.886,109.384 2236.73,109.406C2236.464,109.445 2236.192,109.393 2235.959,109.258L2233.507,107.842C2233.274,107.708 2233.093,107.498 2232.993,107.248C2232.497,106.007 2231.288,105.189 2229.951,105.189C2228.155,105.189 2226.676,106.667 2226.676,108.464C2226.676,108.62 2226.688,108.777 2226.71,108.932C2226.749,109.198 2226.696,109.47 2226.562,109.703C2224.716,112.743 2213.277,132.71 2213.146,132.94C2213.144,132.943 2213.144,132.943 2213.146,132.94ZM1915.09,229.069C1914.959,228.839 1903.519,208.872 1901.674,205.832C1901.539,205.599 1901.487,205.327 1901.526,205.061C1901.548,204.906 1901.559,204.749 1901.559,204.592C1901.559,202.796 1900.081,201.317 1898.284,201.317C1896.947,201.317 1895.739,202.136 1895.243,203.377C1895.143,203.627 1894.962,203.836 1894.729,203.971L1892.277,205.387C1892.043,205.521 1891.772,205.574 1891.505,205.535C1891.35,205.513 1891.194,205.502 1891.037,205.502C1889.24,205.502 1887.762,206.98 1887.762,208.777C1887.762,210.113 1888.58,211.322 1889.822,211.818C1890.072,211.918 1890.281,212.099 1890.416,212.332L1903.831,235.569C1903.966,235.802 1904.018,236.074 1903.98,236.34C1903.957,236.495 1903.946,236.652 1903.946,236.808C1903.946,238.605 1905.424,240.083 1907.221,240.083C1908.558,240.083 1909.766,239.265 1910.262,238.024C1910.362,237.774 1910.543,237.564 1910.777,237.43L1913.229,236.014C1913.462,235.879 1913.734,235.827 1914,235.866C1914.155,235.888 1914.312,235.899 1914.468,235.899C1916.265,235.899 1917.743,234.421 1917.743,232.624C1917.743,231.287 1916.925,230.079 1915.684,229.583C1915.434,229.483 1915.09,229.069 1915.09,229.069C1915.091,229.071 1915.091,229.071 1915.09,229.069Z"/>
        </g>
    </g>
</svg>
